<svg width="126" height="119" viewBox="0 0 126 119" fill="none" xmlns="http://www.w3.org/2000/svg">
<ellipse cx="61" cy="60.5" rx="47" ry="47.5" fill="black"/>
<line x1="34.5794" y1="33.2704" x2="25.5794" y2="19.2704" stroke="black"/>
<line x1="24.1213" y1="67.4851" x2="0.121268" y2="73.4851" stroke="black"/>
<line x1="43.4192" y1="94.2725" x2="30.4192" y2="114.272" stroke="black"/>
<line x1="72.4192" y1="98.7275" x2="85.4192" y2="118.728" stroke="black"/>
<line x1="92.1833" y1="78.5348" x2="125.183" y2="91.5348" stroke="black"/>
<line x1="86.7363" y1="50.5752" x2="115.736" y2="32.5752" stroke="black"/>
<line x1="64.514" y1="29.8827" x2="71.514" y2="0.882679" stroke="black"/>
<circle cx="34.5" cy="40.5" r="2.5" fill="#3C3C3C"/>
<circle cx="34.5" cy="40.5" r="2.5" fill="#3C3C3C"/>
<circle cx="34.5" cy="40.5" r="2.5" fill="#3C3C3C"/>
<circle cx="34.5" cy="40.5" r="2.5" fill="#3C3C3C"/>
<circle cx="34.5" cy="40.5" r="2.5" fill="#3C3C3C"/>
<circle cx="61.5" cy="44.5" r="2.5" fill="#3C3C3C"/>
<circle cx="61.5" cy="44.5" r="2.5" fill="#3C3C3C"/>
<circle cx="61.5" cy="44.5" r="2.5" fill="#3C3C3C"/>
<circle cx="61.5" cy="44.5" r="2.5" fill="#3C3C3C"/>
<circle cx="61.5" cy="44.5" r="2.5" fill="#3C3C3C"/>
<circle cx="49.5" cy="64.5" r="2.5" fill="#3C3C3C"/>
<circle cx="49.5" cy="64.5" r="2.5" fill="#3C3C3C"/>
<circle cx="49.5" cy="64.5" r="2.5" fill="#3C3C3C"/>
<circle cx="49.5" cy="64.5" r="2.5" fill="#3C3C3C"/>
<circle cx="49.5" cy="64.5" r="2.5" fill="#3C3C3C"/>
<circle cx="35.5" cy="82.5" r="2.5" fill="#3C3C3C"/>
<circle cx="35.5" cy="82.5" r="2.5" fill="#3C3C3C"/>
<circle cx="35.5" cy="82.5" r="2.5" fill="#3C3C3C"/>
<circle cx="35.5" cy="82.5" r="2.5" fill="#3C3C3C"/>
<circle cx="35.5" cy="82.5" r="2.5" fill="#3C3C3C"/>
<circle cx="62.5" cy="91.5" r="2.5" fill="#3C3C3C"/>
<circle cx="62.5" cy="91.5" r="2.5" fill="#3C3C3C"/>
<circle cx="62.5" cy="91.5" r="2.5" fill="#3C3C3C"/>
<circle cx="62.5" cy="91.5" r="2.5" fill="#3C3C3C"/>
<circle cx="62.5" cy="91.5" r="2.5" fill="#3C3C3C"/>
<circle cx="83.5" cy="74.5" r="2.5" fill="#3C3C3C"/>
<circle cx="83.5" cy="74.5" r="2.5" fill="#3C3C3C"/>
<circle cx="83.5" cy="74.5" r="2.5" fill="#3C3C3C"/>
<circle cx="83.5" cy="74.5" r="2.5" fill="#3C3C3C"/>
<circle cx="83.5" cy="74.5" r="2.5" fill="#3C3C3C"/>
<circle cx="88.5" cy="49.5" r="2.5" fill="#3C3C3C"/>
<circle cx="88.5" cy="49.5" r="2.5" fill="#3C3C3C"/>
<circle cx="88.5" cy="49.5" r="2.5" fill="#3C3C3C"/>
<circle cx="88.5" cy="49.5" r="2.5" fill="#3C3C3C"/>
<circle cx="88.5" cy="49.5" r="2.5" fill="#3C3C3C"/>
<circle cx="76.5" cy="25.5" r="2.5" fill="#3C3C3C"/>
<circle cx="76.5" cy="25.5" r="2.5" fill="#3C3C3C"/>
<circle cx="76.5" cy="25.5" r="2.5" fill="#3C3C3C"/>
<circle cx="76.5" cy="25.5" r="2.5" fill="#3C3C3C"/>
<circle cx="76.5" cy="25.5" r="2.5" fill="#3C3C3C"/>
<circle cx="53.5" cy="23.5" r="2.5" fill="#3C3C3C"/>
<circle cx="53.5" cy="23.5" r="2.5" fill="#3C3C3C"/>
<circle cx="53.5" cy="23.5" r="2.5" fill="#3C3C3C"/>
<circle cx="53.5" cy="23.5" r="2.5" fill="#3C3C3C"/>
<circle cx="53.5" cy="23.5" r="2.5" fill="#3C3C3C"/>
</svg>
